<?xml version="1.0" encoding="utf-8"?>
<!-- Generator: Adobe Illustrator 27.9.0, SVG Export Plug-In . SVG Version: 6.00 Build 0)  -->
<svg version="1.1" id="Layer_1" xmlns="http://www.w3.org/2000/svg" xmlns:xlink="http://www.w3.org/1999/xlink" x="0px" y="0px"
	 viewBox="0 0 203.8 40.2" style="enable-background:new 0 0 203.8 40.2;" xml:space="preserve">
<style type="text/css">
	.st0{fill:#FFFFFF;}
	.st1{fill:#363F5F;}
	.st2{fill:#49AA26;}
</style>
<path class="st0" d="M183.7,40.2H20.1C9,40.2,0,31.2,0,20.1v0C0,9,9,0,20.1,0h163.6c11.1,0,20.1,9,20.1,20.1v0
	C203.8,31.2,194.8,40.2,183.7,40.2z"/>
<path class="st1" d="M15.9,21.8c0-1.5,0.3-2.9,0.9-4.1c0.6-1.2,1.5-2.1,2.5-2.7c1.1-0.7,2.3-1,3.6-1c1,0,1.9,0.2,2.9,0.7
	c1,0.4,1.7,1,2.3,1.7V9h3.1v20.5H28v-2.3c-0.5,0.7-1.2,1.3-2.1,1.8c-0.9,0.5-1.9,0.7-3,0.7c-1.3,0-2.5-0.3-3.6-1
	c-1.1-0.7-1.9-1.6-2.5-2.8C16.2,24.7,15.9,23.3,15.9,21.8z M28,21.8c0-1.1-0.2-2-0.6-2.7c-0.4-0.8-1-1.4-1.6-1.8
	c-0.7-0.4-1.4-0.6-2.2-0.6c-0.8,0-1.5,0.2-2.2,0.6c-0.7,0.4-1.2,1-1.7,1.7c-0.4,0.8-0.6,1.7-0.6,2.7c0,1.1,0.2,2,0.6,2.8
	c0.4,0.8,1,1.4,1.7,1.8c0.7,0.4,1.4,0.6,2.2,0.6c0.8,0,1.5-0.2,2.2-0.6c0.7-0.4,1.2-1,1.6-1.8C27.8,23.8,28,22.9,28,21.8z"/>
<path class="st1" d="M48.7,21.5c0,0.6,0,1.1-0.1,1.5H37.3c0.1,1.2,0.5,2.2,1.3,2.9c0.8,0.7,1.8,1.1,2.9,1.1c1.6,0,2.8-0.7,3.5-2.1
	h3.3c-0.4,1.4-1.3,2.6-2.4,3.5c-1.2,0.9-2.6,1.3-4.4,1.3c-1.4,0-2.7-0.3-3.8-1c-1.1-0.7-2-1.6-2.6-2.8c-0.6-1.2-0.9-2.6-0.9-4.1
	s0.3-2.9,0.9-4.1c0.6-1.2,1.5-2.1,2.6-2.8c1.1-0.6,2.4-1,3.9-1c1.4,0,2.6,0.3,3.7,0.9c1.1,0.6,1.9,1.5,2.6,2.7
	C48.4,18.7,48.7,20,48.7,21.5z M45.5,20.5c0-1.2-0.4-2.1-1.2-2.8c-0.8-0.7-1.8-1.1-2.9-1.1c-1.1,0-2,0.4-2.7,1.1
	c-0.8,0.7-1.2,1.6-1.3,2.8H45.5z"/>
<path class="st1" d="M57.5,26.6l4.2-12.4h3.3l-5.6,15.2h-3.7L50,14.2h3.3L57.5,26.6z"/>
<path class="st1" d="M68.5,29.7c-0.6,0-1-0.2-1.4-0.6c-0.4-0.4-0.6-0.9-0.6-1.4c0-0.6,0.2-1.1,0.6-1.4c0.4-0.4,0.8-0.6,1.4-0.6
	c0.5,0,1,0.2,1.4,0.6c0.4,0.4,0.6,0.9,0.6,1.4c0,0.6-0.2,1.1-0.6,1.4C69.5,29.5,69,29.7,68.5,29.7z"/>
<path class="st1" d="M79.9,16.8h-2.7v12.7h-3.1V16.8h-1.7v-2.6h1.7v-1.1c0-1.8,0.4-3,1.3-3.8c0.9-0.8,2.3-1.2,4.3-1.2v2.6
	c-0.9,0-1.6,0.2-2,0.6c-0.4,0.4-0.6,1-0.6,1.9v1.1h2.7V16.8z"/>
<path class="st1" d="M84.2,12.2c-0.6,0-1-0.2-1.4-0.6c-0.4-0.4-0.6-0.9-0.6-1.4c0-0.6,0.2-1.1,0.6-1.4c0.4-0.4,0.8-0.6,1.4-0.6
	c0.5,0,1,0.2,1.4,0.6c0.4,0.4,0.6,0.9,0.6,1.4c0,0.6-0.2,1.1-0.6,1.4C85.2,12,84.8,12.2,84.2,12.2z M85.7,14.2v15.2h-3.1V14.2H85.7z
	"/>
<path class="st1" d="M97.2,14c1.2,0,2.2,0.2,3.1,0.7c0.9,0.5,1.7,1.2,2.2,2.2c0.5,1,0.8,2.2,0.8,3.5v9h-3v-8.5c0-1.4-0.3-2.4-1-3.1
	c-0.7-0.7-1.6-1.1-2.7-1.1s-2.1,0.4-2.7,1.1c-0.7,0.7-1,1.8-1,3.1v8.5h-3.1V14.2h3.1V16c0.5-0.6,1.1-1.1,1.9-1.5
	C95.5,14.1,96.3,14,97.2,14z"/>
<path class="st1" d="M106.2,21.8c0-1.5,0.3-2.9,0.9-4.1c0.6-1.2,1.5-2.1,2.5-2.7c1.1-0.7,2.3-1,3.6-1c1.2,0,2.2,0.2,3,0.7
	c0.9,0.5,1.6,1,2.1,1.7v-2.2h3.1v15.2h-3.1v-2.3c-0.5,0.7-1.2,1.3-2.1,1.8c-0.9,0.5-1.9,0.7-3.1,0.7c-1.3,0-2.4-0.3-3.5-1
	c-1.1-0.7-1.9-1.6-2.5-2.8C106.5,24.7,106.2,23.3,106.2,21.8z M118.3,21.8c0-1.1-0.2-2-0.6-2.7c-0.4-0.8-1-1.4-1.6-1.8
	c-0.7-0.4-1.4-0.6-2.2-0.6c-0.8,0-1.5,0.2-2.2,0.6c-0.7,0.4-1.2,1-1.7,1.7c-0.4,0.8-0.6,1.7-0.6,2.7c0,1.1,0.2,2,0.6,2.8
	c0.4,0.8,1,1.4,1.7,1.8c0.7,0.4,1.4,0.6,2.2,0.6c0.8,0,1.5-0.2,2.2-0.6c0.7-0.4,1.2-1,1.6-1.8C118.1,23.8,118.3,22.9,118.3,21.8z"/>
<path class="st1" d="M132.9,14c1.2,0,2.2,0.2,3.1,0.7c0.9,0.5,1.7,1.2,2.2,2.2c0.5,1,0.8,2.2,0.8,3.5v9h-3v-8.5c0-1.4-0.3-2.4-1-3.1
	c-0.7-0.7-1.6-1.1-2.7-1.1c-1.1,0-2.1,0.4-2.7,1.1c-0.7,0.7-1,1.8-1,3.1v8.5h-3.1V14.2h3.1V16c0.5-0.6,1.1-1.1,1.9-1.5
	C131.2,14.1,132,14,132.9,14z"/>
<path class="st1" d="M141.9,21.8c0-1.6,0.3-2.9,0.9-4.1c0.6-1.2,1.5-2.1,2.6-2.8c1.1-0.6,2.3-1,3.8-1c1.8,0,3.3,0.4,4.4,1.3
	c1.2,0.9,2,2.1,2.4,3.7h-3.3c-0.3-0.8-0.7-1.3-1.3-1.8c-0.6-0.4-1.3-0.6-2.2-0.6c-1.3,0-2.3,0.5-3,1.4c-0.7,0.9-1.1,2.2-1.1,3.8
	c0,1.6,0.4,2.9,1.1,3.8c0.8,0.9,1.8,1.4,3,1.4c1.8,0,2.9-0.8,3.5-2.4h3.3c-0.4,1.5-1.2,2.8-2.4,3.7c-1.2,0.9-2.7,1.4-4.4,1.4
	c-1.4,0-2.7-0.3-3.8-1c-1.1-0.7-2-1.6-2.6-2.8C142.2,24.8,141.9,23.4,141.9,21.8z"/>
<path class="st1" d="M172.6,21.5c0,0.6,0,1.1-0.1,1.5h-11.3c0.1,1.2,0.5,2.2,1.3,2.9c0.8,0.7,1.8,1.1,2.9,1.1c1.7,0,2.8-0.7,3.5-2.1
	h3.3c-0.4,1.4-1.3,2.6-2.4,3.5c-1.2,0.9-2.6,1.3-4.4,1.3c-1.4,0-2.7-0.3-3.8-1c-1.1-0.7-2-1.6-2.6-2.8c-0.6-1.2-0.9-2.6-0.9-4.1
	s0.3-2.9,0.9-4.1c0.6-1.2,1.5-2.1,2.6-2.8c1.1-0.6,2.4-1,3.9-1c1.4,0,2.6,0.3,3.7,0.9c1.1,0.6,1.9,1.5,2.6,2.7
	C172.3,18.7,172.6,20,172.6,21.5z M169.4,20.5c0-1.2-0.4-2.1-1.2-2.8c-0.8-0.7-1.8-1.1-2.9-1.1c-1.1,0-2,0.4-2.7,1.1
	c-0.8,0.7-1.2,1.6-1.3,2.8H169.4z"/>
<path class="st2" d="M68.5,29.7c-0.6,0-1-0.2-1.4-0.6c-0.4-0.4-0.6-0.9-0.6-1.4s0.2-1.1,0.6-1.4c0.4-0.4,0.8-0.6,1.4-0.6
	c0.5,0,1,0.2,1.4,0.6c0.4,0.4,0.6,0.9,0.6,1.4s-0.2,1.1-0.6,1.4C69.5,29.5,69,29.7,68.5,29.7z"/>
<path class="st2" d="M187.9,25.4c0,0.8-0.2,1.5-0.7,2.2c-0.4,0.7-1.1,1.3-2,1.7c-0.8,0.5-1.9,0.7-3,0.8v1.9h-1.8v-1.9
	c-1.7-0.1-3.1-0.6-4.1-1.4c-1-0.8-1.6-1.8-1.6-3.1h3.3c0.1,0.6,0.3,1.1,0.7,1.5c0.4,0.4,1,0.6,1.7,0.7v-5.2c-1.2-0.3-2.2-0.5-3-0.8
	c-0.8-0.3-1.4-0.7-2-1.3c-0.5-0.6-0.8-1.4-0.8-2.4c0-1.3,0.5-2.4,1.6-3.2c1.1-0.9,2.4-1.4,4.1-1.5v-1.9h1.8v1.9
	c1.6,0.1,2.9,0.6,3.8,1.3c1,0.7,1.5,1.7,1.7,3h-3.3c-0.1-0.5-0.3-0.9-0.7-1.3c-0.4-0.4-0.9-0.7-1.5-0.8v5.1c1.2,0.2,2.2,0.5,3,0.8
	c0.8,0.3,1.4,0.7,1.9,1.3C187.6,23.6,187.9,24.4,187.9,25.4z M177.9,18.2c0,0.6,0.2,1.1,0.7,1.5c0.5,0.4,1.1,0.6,1.9,0.9v-4.7
	c-0.8,0.1-1.4,0.3-1.9,0.7C178.1,16.9,177.9,17.5,177.9,18.2z M182.2,28c0.8-0.1,1.4-0.4,1.9-0.8c0.5-0.5,0.7-1,0.7-1.6
	c0-0.6-0.2-1.1-0.7-1.5c-0.4-0.4-1.1-0.6-1.9-0.9V28z"/>
</svg>
